<svg width="553" height="315" viewBox="0 0 553 315" fill="none" xmlns="http://www.w3.org/2000/svg">
<path d="M355 79C355 122.63 319.63 158 276 158C232.37 158 197 122.63 197 79C197 35.3695 232.37 0 276 0C319.63 0 355 35.3695 355 79Z" fill="#005DA9"/>
<path d="M264.275 22.113C248.542 25.313 231.608 38.6463 224.675 53.313C211.475 81.313 222.008 114.646 248.942 129.18C283.608 147.98 326.808 126.513 333.075 87.4463C339.342 48.113 303.742 14.3797 264.275 22.113ZM272.675 45.4463C271.475 51.8463 275.608 61.1797 281.475 64.7797C290.008 69.9797 303.742 67.0463 308.008 59.313C309.342 56.6463 309.608 56.513 310.808 58.6463C311.475 59.8463 312.142 64.113 312.142 68.113C312.408 93.5797 282.408 107.313 263.608 90.3797C249.608 77.713 249.742 57.8463 263.875 45.713C271.475 39.313 273.742 39.1797 272.675 45.4463Z" fill="white"/>
<path d="M89.1026 209.592C89.1026 212.184 88.6546 214.568 87.7586 216.744C86.8626 218.92 85.6146 220.808 84.0146 222.408C82.4466 223.976 80.5746 225.208 78.3986 226.104C76.2546 227 73.9186 227.448 71.3906 227.448C68.8626 227.448 66.5106 227 64.3346 226.104C62.1906 225.208 60.3186 223.976 58.7186 222.408C57.1506 220.808 55.9186 218.92 55.0226 216.744C54.1266 214.568 53.6786 212.184 53.6786 209.592C53.6786 207 54.1266 204.616 55.0226 202.44C55.9186 200.264 57.1506 198.392 58.7186 196.824C60.3186 195.224 62.1906 193.976 64.3346 193.08C66.5106 192.184 68.8626 191.736 71.3906 191.736C73.9186 191.736 76.2546 192.184 78.3986 193.08C80.5746 193.976 82.4466 195.224 84.0146 196.824C85.6146 198.392 86.8626 200.264 87.7586 202.44C88.6546 204.616 89.1026 207 89.1026 209.592ZM85.4546 209.592C85.4546 207.608 85.1346 205.72 84.4946 203.928C83.8546 202.136 82.9266 200.568 81.7106 199.224C80.4946 197.848 79.0066 196.76 77.2466 195.96C75.5186 195.16 73.5666 194.76 71.3906 194.76C69.2146 194.76 67.2466 195.16 65.4866 195.96C63.7586 196.76 62.2866 197.848 61.0706 199.224C59.8546 200.568 58.9266 202.136 58.2866 203.928C57.6466 205.72 57.3266 207.608 57.3266 209.592C57.3266 211.576 57.6466 213.464 58.2866 215.256C58.9266 217.048 59.8546 218.616 61.0706 219.96C62.2866 221.304 63.7586 222.376 65.4866 223.176C67.2466 223.976 69.2146 224.376 71.3906 224.376C73.5666 224.376 75.5186 223.976 77.2466 223.176C79.0066 222.376 80.4946 221.304 81.7106 219.96C82.9266 218.616 83.8546 217.048 84.4946 215.256C85.1346 213.464 85.4546 211.576 85.4546 209.592Z" fill="#005DA9"/>
<path d="M96.2839 192.6H106.412C107.692 192.6 108.988 192.744 110.3 193.032C111.612 193.288 112.78 193.752 113.804 194.424C114.86 195.064 115.708 195.944 116.348 197.064C117.02 198.184 117.356 199.592 117.356 201.288C117.356 203.08 116.812 204.648 115.724 205.992C114.636 207.304 113.18 208.168 111.356 208.584V208.68C113.564 208.936 115.388 209.8 116.828 211.272C118.3 212.712 119.036 214.68 119.036 217.176C119.036 218.584 118.732 219.88 118.124 221.064C117.548 222.216 116.716 223.208 115.628 224.04C114.54 224.84 113.212 225.464 111.644 225.912C110.076 226.36 108.316 226.584 106.364 226.584H96.2839V192.6ZM99.7399 207.48H106.7C107.532 207.48 108.364 207.384 109.196 207.192C110.06 207 110.844 206.68 111.548 206.232C112.252 205.752 112.812 205.128 113.228 204.36C113.676 203.592 113.9 202.648 113.9 201.528C113.9 200.44 113.676 199.528 113.228 198.792C112.812 198.024 112.236 197.4 111.5 196.92C110.764 196.44 109.9 196.104 108.908 195.912C107.916 195.688 106.86 195.576 105.74 195.576H99.7399V207.48ZM99.7399 223.608H106.172C107.42 223.608 108.604 223.496 109.724 223.272C110.876 223.016 111.868 222.632 112.7 222.12C113.564 221.576 114.252 220.888 114.764 220.056C115.276 219.192 115.532 218.168 115.532 216.984C115.532 214.744 114.764 213.08 113.228 211.992C111.724 210.872 109.58 210.312 106.796 210.312H99.7399V223.608Z" fill="#005DA9"/>
<path d="M143.264 198.072C142.528 197.048 141.583 196.232 140.432 195.624C139.28 194.984 137.887 194.664 136.255 194.664C135.423 194.664 134.576 194.792 133.712 195.048C132.848 195.304 132.063 195.704 131.359 196.248C130.656 196.76 130.079 197.416 129.632 198.216C129.215 199.016 129.008 199.96 129.008 201.048C129.008 202.136 129.215 203.032 129.632 203.736C130.048 204.44 130.592 205.048 131.264 205.56C131.967 206.04 132.751 206.44 133.615 206.76C134.511 207.08 135.439 207.4 136.4 207.72C137.584 208.104 138.768 208.52 139.952 208.968C141.168 209.416 142.255 210.008 143.215 210.744C144.176 211.448 144.96 212.36 145.568 213.48C146.176 214.568 146.48 215.96 146.48 217.656C146.48 219.352 146.143 220.824 145.471 222.072C144.831 223.288 143.984 224.296 142.928 225.096C141.904 225.896 140.719 226.488 139.376 226.872C138.064 227.256 136.735 227.448 135.391 227.448C134.367 227.448 133.344 227.336 132.32 227.112C131.296 226.92 130.319 226.616 129.391 226.2C128.464 225.784 127.6 225.256 126.799 224.616C125.999 223.976 125.296 223.24 124.688 222.408L127.663 220.2C128.4 221.416 129.424 222.44 130.736 223.272C132.079 224.072 133.647 224.472 135.439 224.472C136.303 224.472 137.184 224.344 138.079 224.088C138.975 223.8 139.776 223.384 140.48 222.84C141.216 222.264 141.807 221.576 142.255 220.776C142.735 219.944 142.975 218.984 142.975 217.896C142.975 216.712 142.735 215.736 142.255 214.968C141.807 214.168 141.2 213.512 140.432 213C139.663 212.456 138.784 212.008 137.792 211.656C136.799 211.304 135.759 210.952 134.671 210.6C133.551 210.248 132.447 209.848 131.359 209.4C130.271 208.952 129.296 208.376 128.432 207.672C127.568 206.936 126.864 206.04 126.32 204.984C125.808 203.928 125.551 202.632 125.551 201.096C125.551 199.464 125.871 198.056 126.511 196.872C127.183 195.688 128.048 194.712 129.104 193.944C130.16 193.176 131.327 192.616 132.607 192.264C133.887 191.912 135.152 191.736 136.4 191.736C138.704 191.736 140.671 192.152 142.303 192.984C143.936 193.784 145.167 194.744 145.999 195.864L143.264 198.072Z" fill="#005DA9"/>
<path d="M157.349 223.512H175.541V226.584H153.893V192.6H174.965V195.672H157.349V207.384H173.813V210.408H157.349V223.512Z" fill="#005DA9"/>
<path d="M185.755 226.584H182.299V192.6H192.284C193.948 192.6 195.483 192.76 196.891 193.08C198.331 193.4 199.563 193.928 200.587 194.664C201.643 195.368 202.46 196.296 203.036 197.448C203.612 198.6 203.9 200.008 203.9 201.672C203.9 202.92 203.676 204.056 203.228 205.08C202.78 206.104 202.172 207 201.404 207.768C200.635 208.504 199.723 209.096 198.667 209.544C197.611 209.992 196.46 210.28 195.212 210.408L205.148 226.584H200.924L191.516 210.696H185.755V226.584ZM185.755 207.72H191.755C194.539 207.72 196.684 207.224 198.188 206.232C199.691 205.208 200.443 203.688 200.443 201.672C200.443 200.552 200.236 199.608 199.82 198.84C199.404 198.072 198.828 197.448 198.092 196.968C197.355 196.488 196.46 196.136 195.404 195.912C194.348 195.688 193.18 195.576 191.9 195.576H185.755V207.72Z" fill="#005DA9"/>
<path d="M220.887 222.12H220.983L232.023 192.6H235.719L222.711 226.584H219.063L206.103 192.6H209.847L220.887 222.12Z" fill="#005DA9"/>
<path d="M238.684 226.584H234.893L249.581 192.6H252.941L267.533 226.584H263.693L259.948 217.656H242.38L238.684 226.584ZM243.676 214.488H258.652L251.165 196.44L243.676 214.488Z" fill="#005DA9"/>
<path d="M280.57 226.584H277.115V195.672H265.738V192.6H291.947V195.672H280.57V226.584Z" fill="#005DA9"/>
<path d="M329.196 209.592C329.196 212.184 328.748 214.568 327.852 216.744C326.956 218.92 325.708 220.808 324.108 222.408C322.54 223.976 320.668 225.208 318.492 226.104C316.348 227 314.012 227.448 311.484 227.448C308.956 227.448 306.604 227 304.428 226.104C302.284 225.208 300.412 223.976 298.812 222.408C297.244 220.808 296.012 218.92 295.116 216.744C294.22 214.568 293.772 212.184 293.772 209.592C293.772 207 294.22 204.616 295.116 202.44C296.012 200.264 297.244 198.392 298.812 196.824C300.412 195.224 302.284 193.976 304.428 193.08C306.604 192.184 308.956 191.736 311.484 191.736C314.012 191.736 316.348 192.184 318.492 193.08C320.668 193.976 322.54 195.224 324.108 196.824C325.708 198.392 326.956 200.264 327.852 202.44C328.748 204.616 329.196 207 329.196 209.592ZM325.548 209.592C325.548 207.608 325.228 205.72 324.588 203.928C323.948 202.136 323.02 200.568 321.804 199.224C320.588 197.848 319.1 196.76 317.34 195.96C315.612 195.16 313.66 194.76 311.484 194.76C309.308 194.76 307.34 195.16 305.58 195.96C303.852 196.76 302.38 197.848 301.164 199.224C299.948 200.568 299.02 202.136 298.38 203.928C297.74 205.72 297.42 207.608 297.42 209.592C297.42 211.576 297.74 213.464 298.38 215.256C299.02 217.048 299.948 218.616 301.164 219.96C302.38 221.304 303.852 222.376 305.58 223.176C307.34 223.976 309.308 224.376 311.484 224.376C313.66 224.376 315.612 223.976 317.34 223.176C319.1 222.376 320.588 221.304 321.804 219.96C323.02 218.616 323.948 217.048 324.588 215.256C325.228 213.464 325.548 211.576 325.548 209.592ZM311.532 189.912H308.7L313.5 183H317.868L311.532 189.912Z" fill="#005DA9"/>
<path d="M339.834 226.584H336.378V192.6H346.362C348.026 192.6 349.562 192.76 350.97 193.08C352.41 193.4 353.642 193.928 354.666 194.664C355.722 195.368 356.538 196.296 357.114 197.448C357.69 198.6 357.978 200.008 357.978 201.672C357.978 202.92 357.754 204.056 357.306 205.08C356.858 206.104 356.25 207 355.482 207.768C354.714 208.504 353.802 209.096 352.746 209.544C351.69 209.992 350.538 210.28 349.29 210.408L359.226 226.584H355.002L345.594 210.696H339.834V226.584ZM339.834 207.72H345.834C348.618 207.72 350.762 207.224 352.266 206.232C353.77 205.208 354.522 203.688 354.522 201.672C354.522 200.552 354.314 199.608 353.898 198.84C353.482 198.072 352.906 197.448 352.17 196.968C351.434 196.488 350.538 196.136 349.482 195.912C348.426 195.688 347.258 195.576 345.978 195.576H339.834V207.72Z" fill="#005DA9"/>
<path d="M368.568 226.584H365.112V192.6H368.568V226.584Z" fill="#005DA9"/>
<path d="M411.181 209.592C411.181 212.184 410.733 214.568 409.837 216.744C408.941 218.92 407.693 220.808 406.093 222.408C404.525 223.976 402.653 225.208 400.477 226.104C398.333 227 395.997 227.448 393.469 227.448C390.941 227.448 388.589 227 386.413 226.104C384.269 225.208 382.397 223.976 380.797 222.408C379.229 220.808 377.997 218.92 377.101 216.744C376.205 214.568 375.757 212.184 375.757 209.592C375.757 207 376.205 204.616 377.101 202.44C377.997 200.264 379.229 198.392 380.797 196.824C382.397 195.224 384.269 193.976 386.413 193.08C388.589 192.184 390.941 191.736 393.469 191.736C395.997 191.736 398.333 192.184 400.477 193.08C402.653 193.976 404.525 195.224 406.093 196.824C407.693 198.392 408.941 200.264 409.837 202.44C410.733 204.616 411.181 207 411.181 209.592ZM407.533 209.592C407.533 207.608 407.213 205.72 406.573 203.928C405.933 202.136 405.005 200.568 403.789 199.224C402.573 197.848 401.085 196.76 399.325 195.96C397.597 195.16 395.645 194.76 393.469 194.76C391.293 194.76 389.325 195.16 387.565 195.96C385.837 196.76 384.365 197.848 383.149 199.224C381.933 200.568 381.005 202.136 380.365 203.928C379.725 205.72 379.405 207.608 379.405 209.592C379.405 211.576 379.725 213.464 380.365 215.256C381.005 217.048 381.933 218.616 383.149 219.96C384.365 221.304 385.837 222.376 387.565 223.176C389.325 223.976 391.293 224.376 393.469 224.376C395.645 224.376 397.597 223.976 399.325 223.176C401.085 222.376 402.573 221.304 403.789 219.96C405.005 218.616 405.933 217.048 406.573 215.256C407.213 213.464 407.533 211.576 407.533 209.592Z" fill="#005DA9"/>
<path d="M430.362 192.6H441.642C443.754 192.6 445.866 192.952 447.978 193.656C450.122 194.36 452.042 195.432 453.738 196.872C455.466 198.28 456.858 200.056 457.914 202.2C458.97 204.312 459.498 206.776 459.498 209.592C459.498 212.44 458.97 214.92 457.914 217.032C456.858 219.144 455.466 220.92 453.738 222.36C452.042 223.768 450.122 224.824 447.978 225.528C445.866 226.232 443.754 226.584 441.642 226.584H430.362V192.6ZM433.818 223.512H440.682C443.242 223.512 445.466 223.112 447.354 222.312C449.274 221.512 450.858 220.472 452.106 219.192C453.354 217.88 454.282 216.392 454.89 214.728C455.53 213.064 455.85 211.352 455.85 209.592C455.85 207.832 455.53 206.12 454.89 204.456C454.282 202.792 453.354 201.32 452.106 200.04C450.858 198.728 449.274 197.672 447.354 196.872C445.466 196.072 443.242 195.672 440.682 195.672H433.818V223.512Z" fill="#005DA9"/>
<path d="M500.29 209.592C500.29 212.184 499.842 214.568 498.946 216.744C498.05 218.92 496.802 220.808 495.202 222.408C493.634 223.976 491.762 225.208 489.586 226.104C487.442 227 485.106 227.448 482.578 227.448C480.05 227.448 477.698 227 475.522 226.104C473.378 225.208 471.506 223.976 469.906 222.408C468.338 220.808 467.106 218.92 466.21 216.744C465.314 214.568 464.866 212.184 464.866 209.592C464.866 207 465.314 204.616 466.21 202.44C467.106 200.264 468.338 198.392 469.906 196.824C471.506 195.224 473.378 193.976 475.522 193.08C477.698 192.184 480.05 191.736 482.578 191.736C485.106 191.736 487.442 192.184 489.586 193.08C491.762 193.976 493.634 195.224 495.202 196.824C496.802 198.392 498.05 200.264 498.946 202.44C499.842 204.616 500.29 207 500.29 209.592ZM496.642 209.592C496.642 207.608 496.322 205.72 495.682 203.928C495.042 202.136 494.114 200.568 492.898 199.224C491.682 197.848 490.194 196.76 488.434 195.96C486.706 195.16 484.754 194.76 482.578 194.76C480.402 194.76 478.434 195.16 476.674 195.96C474.946 196.76 473.474 197.848 472.258 199.224C471.042 200.568 470.114 202.136 469.474 203.928C468.834 205.72 468.514 207.608 468.514 209.592C468.514 211.576 468.834 213.464 469.474 215.256C470.114 217.048 471.042 218.616 472.258 219.96C473.474 221.304 474.946 222.376 476.674 223.176C478.434 223.976 480.402 224.376 482.578 224.376C484.754 224.376 486.706 223.976 488.434 223.176C490.194 222.376 491.682 221.304 492.898 219.96C494.114 218.616 495.042 217.048 495.682 215.256C496.322 213.464 496.642 211.576 496.642 209.592Z" fill="#005DA9"/>
<path d="M39.744 258.824C38.464 257.16 36.64 255.784 34.272 254.696C31.968 253.544 29.632 252.968 27.264 252.968C25.856 252.968 24.448 253.16 23.04 253.544C21.632 253.864 20.352 254.408 19.2 255.176C18.048 255.88 17.088 256.84 16.32 258.056C15.616 259.208 15.264 260.616 15.264 262.28C15.264 263.816 15.584 265.128 16.224 266.216C16.864 267.304 17.728 268.232 18.816 269C19.968 269.768 21.344 270.44 22.944 271.016C24.544 271.592 26.304 272.168 28.224 272.744C30.4 273.448 32.64 274.248 34.944 275.144C37.312 276.04 39.456 277.224 41.376 278.696C43.36 280.168 44.96 282.024 46.176 284.264C47.456 286.504 48.096 289.288 48.096 292.616C48.096 296.264 47.424 299.464 46.08 302.216C44.736 304.904 42.944 307.144 40.704 308.936C38.464 310.728 35.84 312.072 32.832 312.968C29.824 313.864 26.656 314.312 23.328 314.312C18.912 314.312 14.592 313.512 10.368 311.912C6.144 310.248 2.688 307.816 0 304.616L8.64 296.552C10.304 298.856 12.512 300.68 15.264 302.024C18.08 303.368 20.832 304.04 23.52 304.04C24.928 304.04 26.368 303.88 27.84 303.56C29.312 303.176 30.624 302.568 31.776 301.736C32.992 300.904 33.952 299.88 34.656 298.664C35.424 297.384 35.808 295.816 35.808 293.96C35.808 292.168 35.392 290.696 34.56 289.544C33.728 288.328 32.608 287.304 31.2 286.472C29.792 285.576 28.128 284.808 26.208 284.168C24.288 283.528 22.272 282.856 20.16 282.152C18.112 281.512 16.064 280.744 14.016 279.848C11.968 278.952 10.112 277.768 8.448 276.296C6.848 274.824 5.536 273.032 4.512 270.92C3.488 268.744 2.976 266.056 2.976 262.856C2.976 259.4 3.68 256.424 5.088 253.928C6.56 251.432 8.448 249.384 10.752 247.784C13.12 246.12 15.776 244.904 18.72 244.136C21.728 243.304 24.768 242.888 27.84 242.888C31.296 242.888 34.784 243.496 38.304 244.712C41.888 245.928 44.992 247.752 47.616 250.184L39.744 258.824Z" fill="#005DA9"/>
<path d="M88.245 306.728H87.957C86.805 308.776 84.949 310.472 82.389 311.816C79.829 313.096 76.917 313.736 73.653 313.736C71.797 313.736 69.845 313.48 67.797 312.968C65.813 312.52 63.957 311.752 62.229 310.664C60.565 309.512 59.157 308.04 58.005 306.248C56.917 304.392 56.373 302.12 56.373 299.432C56.373 295.976 57.333 293.224 59.253 291.176C61.237 289.128 63.765 287.56 66.837 286.472C69.909 285.384 73.301 284.68 77.013 284.36C80.789 283.976 84.469 283.784 88.053 283.784V282.632C88.053 279.752 86.997 277.64 84.885 276.296C82.837 274.888 80.373 274.184 77.493 274.184C75.061 274.184 72.725 274.696 70.485 275.72C68.245 276.744 66.389 277.992 64.917 279.464L58.965 272.456C61.589 270.024 64.597 268.2 67.989 266.984C71.445 265.768 74.933 265.16 78.453 265.16C82.549 265.16 85.909 265.736 88.533 266.888C91.221 268.04 93.333 269.544 94.869 271.4C96.405 273.256 97.461 275.336 98.037 277.64C98.677 279.944 98.997 282.248 98.997 284.552V312.584H88.245V306.728ZM88.053 291.56H85.461C83.605 291.56 81.653 291.656 79.605 291.848C77.557 291.976 75.669 292.328 73.941 292.904C72.213 293.416 70.773 294.184 69.621 295.208C68.469 296.168 67.893 297.512 67.893 299.24C67.893 300.328 68.117 301.256 68.565 302.024C69.077 302.728 69.717 303.304 70.485 303.752C71.253 304.2 72.117 304.52 73.077 304.712C74.037 304.904 74.997 305 75.957 305C79.925 305 82.933 303.944 84.981 301.832C87.029 299.72 88.053 296.84 88.053 293.192V291.56Z" fill="#005DA9"/>
<path d="M112.418 266.504H123.362V273.896H123.554C124.578 271.592 126.338 269.576 128.834 267.848C131.394 266.056 134.402 265.16 137.858 265.16C140.866 265.16 143.426 265.704 145.538 266.792C147.714 267.816 149.474 269.192 150.818 270.92C152.226 272.648 153.25 274.632 153.89 276.872C154.53 279.112 154.85 281.416 154.85 283.784V312.584H143.33V287.048C143.33 285.704 143.234 284.296 143.042 282.824C142.85 281.352 142.434 280.04 141.794 278.888C141.154 277.672 140.258 276.68 139.106 275.912C138.018 275.144 136.546 274.76 134.69 274.76C132.834 274.76 131.234 275.144 129.89 275.912C128.546 276.616 127.426 277.544 126.53 278.696C125.698 279.848 125.058 281.192 124.61 282.728C124.162 284.2 123.938 285.704 123.938 287.24V312.584H112.418V266.504Z" fill="#005DA9"/>
<path d="M200.741 284.936C200.741 283.464 200.517 282.056 200.069 280.712C199.685 279.368 199.045 278.184 198.149 277.16C197.253 276.136 196.101 275.336 194.693 274.76C193.349 274.12 191.749 273.8 189.893 273.8C186.437 273.8 183.493 274.856 181.061 276.968C178.693 279.016 177.381 281.672 177.125 284.936H200.741ZM212.261 290.12C212.261 290.632 212.261 291.144 212.261 291.656C212.261 292.168 212.229 292.68 212.165 293.192H177.125C177.253 294.856 177.669 296.392 178.373 297.8C179.141 299.144 180.133 300.328 181.349 301.352C182.565 302.312 183.941 303.08 185.477 303.656C187.013 304.232 188.613 304.52 190.277 304.52C193.157 304.52 195.589 304.008 197.573 302.984C199.557 301.896 201.189 300.424 202.469 298.568L210.149 304.712C205.605 310.856 199.013 313.928 190.373 313.928C186.789 313.928 183.493 313.384 180.485 312.296C177.477 311.144 174.853 309.544 172.613 307.496C170.437 305.448 168.709 302.952 167.429 300.008C166.213 297 165.605 293.608 165.605 289.832C165.605 286.12 166.213 282.76 167.429 279.752C168.709 276.68 170.437 274.088 172.613 271.976C174.789 269.8 177.349 268.136 180.293 266.984C183.301 265.768 186.533 265.16 189.989 265.16C193.189 265.16 196.133 265.704 198.821 266.792C201.573 267.816 203.941 269.384 205.925 271.496C207.909 273.544 209.445 276.136 210.533 279.272C211.685 282.344 212.261 285.96 212.261 290.12Z" fill="#005DA9"/>
<path d="M251.464 306.728H251.176C250.024 308.776 248.168 310.472 245.608 311.816C243.048 313.096 240.136 313.736 236.872 313.736C235.016 313.736 233.064 313.48 231.016 312.968C229.032 312.52 227.176 311.752 225.448 310.664C223.784 309.512 222.376 308.04 221.224 306.248C220.136 304.392 219.592 302.12 219.592 299.432C219.592 295.976 220.552 293.224 222.472 291.176C224.456 289.128 226.984 287.56 230.056 286.472C233.128 285.384 236.52 284.68 240.232 284.36C244.008 283.976 247.688 283.784 251.272 283.784V282.632C251.272 279.752 250.216 277.64 248.104 276.296C246.056 274.888 243.592 274.184 240.712 274.184C238.28 274.184 235.944 274.696 233.704 275.72C231.464 276.744 229.608 277.992 228.136 279.464L222.184 272.456C224.808 270.024 227.816 268.2 231.208 266.984C234.664 265.768 238.152 265.16 241.672 265.16C245.768 265.16 249.128 265.736 251.752 266.888C254.44 268.04 256.552 269.544 258.088 271.4C259.624 273.256 260.68 275.336 261.256 277.64C261.896 279.944 262.216 282.248 262.216 284.552V312.584H251.464V306.728ZM251.272 291.56H248.68C246.824 291.56 244.872 291.656 242.824 291.848C240.776 291.976 238.888 292.328 237.16 292.904C235.432 293.416 233.992 294.184 232.84 295.208C231.688 296.168 231.112 297.512 231.112 299.24C231.112 300.328 231.336 301.256 231.784 302.024C232.296 302.728 232.936 303.304 233.704 303.752C234.472 304.2 235.336 304.52 236.296 304.712C237.256 304.904 238.216 305 239.176 305C243.144 305 246.152 303.944 248.2 301.832C250.248 299.72 251.272 296.84 251.272 293.192V291.56Z" fill="#005DA9"/>
<path d="M330.645 265.16C333.653 265.16 336.213 265.704 338.325 266.792C340.501 267.816 342.261 269.192 343.605 270.92C345.013 272.648 346.037 274.632 346.677 276.872C347.317 279.112 347.637 281.416 347.637 283.784V312.584H336.117V287.048C336.117 285.704 336.021 284.296 335.829 282.824C335.637 281.352 335.221 280.04 334.581 278.888C333.941 277.672 333.045 276.68 331.893 275.912C330.805 275.144 329.333 274.76 327.477 274.76C325.685 274.76 324.149 275.144 322.869 275.912C321.589 276.68 320.533 277.672 319.701 278.888C318.869 280.104 318.261 281.48 317.877 283.016C317.493 284.488 317.301 285.96 317.301 287.432V312.584H305.781V284.744C305.781 281.864 305.077 279.496 303.669 277.64C302.325 275.72 300.181 274.76 297.237 274.76C295.509 274.76 294.005 275.144 292.725 275.912C291.445 276.616 290.389 277.544 289.557 278.696C288.789 279.848 288.181 281.192 287.733 282.728C287.349 284.2 287.157 285.704 287.157 287.24V312.584H275.637V266.504H286.581V273.896H286.773C287.285 272.744 287.957 271.656 288.789 270.632C289.685 269.608 290.709 268.68 291.861 267.848C293.077 267.016 294.453 266.376 295.989 265.928C297.525 265.416 299.221 265.16 301.077 265.16C304.661 265.16 307.637 265.96 310.005 267.56C312.373 269.16 314.197 271.272 315.477 273.896C317.013 271.08 319.061 268.936 321.621 267.464C324.181 265.928 327.189 265.16 330.645 265.16Z" fill="#005DA9"/>
<path d="M393.491 284.936C393.491 283.464 393.267 282.056 392.819 280.712C392.435 279.368 391.795 278.184 390.899 277.16C390.003 276.136 388.851 275.336 387.443 274.76C386.099 274.12 384.499 273.8 382.643 273.8C379.187 273.8 376.243 274.856 373.811 276.968C371.443 279.016 370.131 281.672 369.875 284.936H393.491ZM405.011 290.12C405.011 290.632 405.011 291.144 405.011 291.656C405.011 292.168 404.979 292.68 404.915 293.192H369.875C370.003 294.856 370.419 296.392 371.123 297.8C371.891 299.144 372.883 300.328 374.099 301.352C375.315 302.312 376.691 303.08 378.227 303.656C379.763 304.232 381.363 304.52 383.027 304.52C385.907 304.52 388.339 304.008 390.323 302.984C392.307 301.896 393.939 300.424 395.219 298.568L402.899 304.712C398.355 310.856 391.763 313.928 383.123 313.928C379.539 313.928 376.243 313.384 373.235 312.296C370.227 311.144 367.603 309.544 365.363 307.496C363.187 305.448 361.459 302.952 360.179 300.008C358.963 297 358.355 293.608 358.355 289.832C358.355 286.12 358.963 282.76 360.179 279.752C361.459 276.68 363.187 274.088 365.363 271.976C367.539 269.8 370.099 268.136 373.043 266.984C376.051 265.768 379.283 265.16 382.739 265.16C385.939 265.16 388.883 265.704 391.571 266.792C394.323 267.816 396.691 269.384 398.675 271.496C400.659 273.544 402.195 276.136 403.283 279.272C404.435 282.344 405.011 285.96 405.011 290.12Z" fill="#005DA9"/>
<path d="M416.168 266.504H427.112V273.896H427.304C428.328 271.592 430.088 269.576 432.584 267.848C435.144 266.056 438.152 265.16 441.608 265.16C444.616 265.16 447.176 265.704 449.288 266.792C451.464 267.816 453.224 269.192 454.568 270.92C455.976 272.648 457 274.632 457.64 276.872C458.28 279.112 458.6 281.416 458.6 283.784V312.584H447.08V287.048C447.08 285.704 446.984 284.296 446.792 282.824C446.6 281.352 446.184 280.04 445.544 278.888C444.904 277.672 444.008 276.68 442.856 275.912C441.768 275.144 440.296 274.76 438.44 274.76C436.584 274.76 434.984 275.144 433.64 275.912C432.296 276.616 431.176 277.544 430.28 278.696C429.448 279.848 428.808 281.192 428.36 282.728C427.912 284.2 427.688 285.704 427.688 287.24V312.584H416.168V266.504Z" fill="#005DA9"/>
<path d="M465.419 275.72V266.504H473.483V253.16H484.811V266.504H496.331V275.72H484.811V297.128C484.811 299.176 485.163 300.872 485.867 302.216C486.635 303.56 488.299 304.232 490.859 304.232C491.627 304.232 492.459 304.168 493.355 304.04C494.251 303.848 495.051 303.592 495.755 303.272L496.139 312.296C495.115 312.68 493.899 312.968 492.491 313.16C491.083 313.416 489.739 313.544 488.459 313.544C485.387 313.544 482.891 313.128 480.971 312.296C479.051 311.4 477.515 310.216 476.363 308.744C475.275 307.208 474.507 305.48 474.059 303.56C473.675 301.576 473.483 299.464 473.483 297.224V275.72H465.419Z" fill="#005DA9"/>
<path d="M501.98 289.352C501.98 285.704 502.62 282.408 503.9 279.464C505.244 276.456 507.036 273.896 509.276 271.784C511.516 269.672 514.172 268.04 517.244 266.888C520.316 265.736 523.58 265.16 527.036 265.16C530.492 265.16 533.756 265.736 536.828 266.888C539.9 268.04 542.556 269.672 544.796 271.784C547.036 273.896 548.796 276.456 550.076 279.464C551.42 282.408 552.092 285.704 552.092 289.352C552.092 293 551.42 296.328 550.076 299.336C548.796 302.344 547.036 304.936 544.796 307.112C542.556 309.224 539.9 310.888 536.828 312.104C533.756 313.32 530.492 313.928 527.036 313.928C523.58 313.928 520.316 313.32 517.244 312.104C514.172 310.888 511.516 309.224 509.276 307.112C507.036 304.936 505.244 302.344 503.9 299.336C502.62 296.328 501.98 293 501.98 289.352ZM513.692 289.352C513.692 291.144 513.948 292.936 514.46 294.728C515.036 296.52 515.868 298.12 516.956 299.528C518.044 300.936 519.42 302.088 521.084 302.984C522.748 303.88 524.732 304.328 527.036 304.328C529.34 304.328 531.324 303.88 532.988 302.984C534.652 302.088 536.028 300.936 537.116 299.528C538.204 298.12 539.004 296.52 539.516 294.728C540.092 292.936 540.38 291.144 540.38 289.352C540.38 287.56 540.092 285.8 539.516 284.072C539.004 282.28 538.204 280.68 537.116 279.272C536.028 277.864 534.652 276.744 532.988 275.912C531.324 275.016 529.34 274.568 527.036 274.568C524.732 274.568 522.748 275.016 521.084 275.912C519.42 276.744 518.044 277.864 516.956 279.272C515.868 280.68 515.036 282.28 514.46 284.072C513.948 285.8 513.692 287.56 513.692 289.352Z" fill="#005DA9"/>
</svg>
